<?xml version="1.0" encoding="utf-8"?>
<svg xmlns="http://www.w3.org/2000/svg" viewBox="0 0 462 462">
<title>https://mtriad.github.io/3/</title>
<rect width="100%" height="100%" fill="#fff" />
<g fill="#000">
<path d="M154 28h14v14h-14zM182 28h14v14h-14zM196 28h14v14h-14zM224 28h14v14h-14zM266 28h14v14h-14zM280 28h14v14h-14zM294 28h14v14h-14zM154 42h14v14h-14zM168 42h14v14h-14zM252 42h14v14h-14zM266 42h14v14h-14zM168 56h14v14h-14zM224 56h14v14h-14zM238 56h14v14h-14zM266 56h14v14h-14zM294 56h14v14h-14zM308 56h14v14h-14zM154 70h14v14h-14zM182 70h14v14h-14zM196 70h14v14h-14zM210 70h14v14h-14zM252 70h14v14h-14zM280 70h14v14h-14zM154 84h14v14h-14zM168 84h14v14h-14zM182 84h14v14h-14zM266 84h14v14h-14zM280 84h14v14h-14zM308 84h14v14h-14zM140 98h14v14h-14zM238 98h14v14h-14zM252 98h14v14h-14zM266 98h14v14h-14zM280 98h14v14h-14zM294 98h14v14h-14zM308 98h14v14h-14zM140 112h14v14h-14zM168 112h14v14h-14zM196 112h14v14h-14zM224 112h14v14h-14zM252 112h14v14h-14zM280 112h14v14h-14zM308 112h14v14h-14zM154 126h14v14h-14zM196 126h14v14h-14zM210 126h14v14h-14zM238 126h14v14h-14zM252 126h14v14h-14zM266 126h14v14h-14zM280 126h14v14h-14zM294 126h14v14h-14zM28 140h14v14H28zM70 140h14v14H70zM98 140h14v14H98zM112 140h14v14h-14zM140 140h14v14h-14zM154 140h14v14h-14zM168 140h14v14h-14zM182 140h14v14h-14zM196 140h14v14h-14zM224 140h14v14h-14zM252 140h14v14h-14zM280 140h14v14h-14zM322 140h14v14h-14zM350 140h14v14h-14zM56 154h14v14H56zM70 154h14v14H70zM84 154h14v14H84zM98 154h14v14H98zM182 154h14v14h-14zM196 154h14v14h-14zM210 154h14v14h-14zM238 154h14v14h-14zM252 154h14v14h-14zM308 154h14v14h-14zM322 154h14v14h-14zM336 154h14v14h-14zM378 154h14v14h-14zM420 154h14v14h-14zM28 168h14v14H28zM56 168h14v14H56zM84 168h14v14H84zM112 168h14v14h-14zM126 168h14v14h-14zM140 168h14v14h-14zM168 168h14v14h-14zM210 168h14v14h-14zM224 168h14v14h-14zM238 168h14v14h-14zM266 168h14v14h-14zM294 168h14v14h-14zM350 168h14v14h-14zM364 168h14v14h-14zM378 168h14v14h-14zM392 168h14v14h-14zM406 168h14v14h-14zM70 182h14v14H70zM84 182h14v14H84zM126 182h14v14h-14zM182 182h14v14h-14zM210 182h14v14h-14zM252 182h14v14h-14zM280 182h14v14h-14zM294 182h14v14h-14zM364 182h14v14h-14zM392 182h14v14h-14zM406 182h14v14h-14zM42 196h14v14H42zM56 196h14v14H56zM70 196h14v14H70zM98 196h14v14H98zM112 196h14v14h-14zM126 196h14v14h-14zM168 196h14v14h-14zM182 196h14v14h-14zM196 196h14v14h-14zM224 196h14v14h-14zM238 196h14v14h-14zM266 196h14v14h-14zM280 196h14v14h-14zM322 196h14v14h-14zM336 196h14v14h-14zM378 196h14v14h-14zM406 196h14v14h-14zM420 196h14v14h-14zM28 210h14v14H28zM42 210h14v14H42zM126 210h14v14h-14zM154 210h14v14h-14zM182 210h14v14h-14zM210 210h14v14h-14zM224 210h14v14h-14zM238 210h14v14h-14zM252 210h14v14h-14zM266 210h14v14h-14zM280 210h14v14h-14zM294 210h14v14h-14zM308 210h14v14h-14zM322 210h14v14h-14zM70 224h14v14H70zM112 224h14v14h-14zM140 224h14v14h-14zM182 224h14v14h-14zM210 224h14v14h-14zM224 224h14v14h-14zM280 224h14v14h-14zM322 224h14v14h-14zM336 224h14v14h-14zM350 224h14v14h-14zM378 224h14v14h-14zM392 224h14v14h-14zM406 224h14v14h-14zM420 224h14v14h-14zM70 238h14v14H70zM126 238h14v14h-14zM140 238h14v14h-14zM154 238h14v14h-14zM168 238h14v14h-14zM196 238h14v14h-14zM238 238h14v14h-14zM266 238h14v14h-14zM280 238h14v14h-14zM294 238h14v14h-14zM322 238h14v14h-14zM350 238h14v14h-14zM378 238h14v14h-14zM406 238h14v14h-14zM56 252h14v14H56zM84 252h14v14H84zM112 252h14v14h-14zM154 252h14v14h-14zM168 252h14v14h-14zM210 252h14v14h-14zM266 252h14v14h-14zM280 252h14v14h-14zM308 252h14v14h-14zM350 252h14v14h-14zM406 252h14v14h-14zM56 266h14v14H56zM84 266h14v14H84zM98 266h14v14H98zM126 266h14v14h-14zM154 266h14v14h-14zM168 266h14v14h-14zM182 266h14v14h-14zM196 266h14v14h-14zM210 266h14v14h-14zM224 266h14v14h-14zM238 266h14v14h-14zM252 266h14v14h-14zM266 266h14v14h-14zM322 266h14v14h-14zM336 266h14v14h-14zM350 266h14v14h-14zM378 266h14v14h-14zM420 266h14v14h-14zM28 280h14v14H28zM84 280h14v14H84zM112 280h14v14h-14zM168 280h14v14h-14zM224 280h14v14h-14zM238 280h14v14h-14zM252 280h14v14h-14zM266 280h14v14h-14zM308 280h14v14h-14zM322 280h14v14h-14zM364 280h14v14h-14zM406 280h14v14h-14zM420 280h14v14h-14zM56 294h14v14H56zM70 294h14v14H70zM98 294h14v14H98zM140 294h14v14h-14zM224 294h14v14h-14zM266 294h14v14h-14zM280 294h14v14h-14zM308 294h14v14h-14zM322 294h14v14h-14zM406 294h14v14h-14zM420 294h14v14h-14zM28 308h14v14H28zM56 308h14v14H56zM84 308h14v14H84zM98 308h14v14H98zM112 308h14v14h-14zM126 308h14v14h-14zM168 308h14v14h-14zM182 308h14v14h-14zM196 308h14v14h-14zM238 308h14v14h-14zM266 308h14v14h-14zM280 308h14v14h-14zM308 308h14v14h-14zM322 308h14v14h-14zM336 308h14v14h-14zM350 308h14v14h-14zM364 308h14v14h-14zM392 308h14v14h-14zM140 322h14v14h-14zM196 322h14v14h-14zM224 322h14v14h-14zM238 322h14v14h-14zM308 322h14v14h-14zM364 322h14v14h-14zM392 322h14v14h-14zM406 322h14v14h-14zM420 322h14v14h-14zM154 336h14v14h-14zM182 336h14v14h-14zM196 336h14v14h-14zM252 336h14v14h-14zM266 336h14v14h-14zM308 336h14v14h-14zM336 336h14v14h-14zM364 336h14v14h-14zM406 336h14v14h-14zM140 350h14v14h-14zM154 350h14v14h-14zM182 350h14v14h-14zM224 350h14v14h-14zM238 350h14v14h-14zM266 350h14v14h-14zM308 350h14v14h-14zM364 350h14v14h-14zM378 350h14v14h-14zM392 350h14v14h-14zM420 350h14v14h-14zM182 364h14v14h-14zM252 364h14v14h-14zM308 364h14v14h-14zM322 364h14v14h-14zM336 364h14v14h-14zM350 364h14v14h-14zM364 364h14v14h-14zM140 378h14v14h-14zM182 378h14v14h-14zM210 378h14v14h-14zM238 378h14v14h-14zM266 378h14v14h-14zM294 378h14v14h-14zM336 378h14v14h-14zM364 378h14v14h-14zM378 378h14v14h-14zM392 378h14v14h-14zM420 378h14v14h-14zM182 392h14v14h-14zM196 392h14v14h-14zM210 392h14v14h-14zM224 392h14v14h-14zM238 392h14v14h-14zM252 392h14v14h-14zM266 392h14v14h-14zM280 392h14v14h-14zM308 392h14v14h-14zM364 392h14v14h-14zM378 392h14v14h-14zM392 392h14v14h-14zM420 392h14v14h-14zM182 406h14v14h-14zM210 406h14v14h-14zM252 406h14v14h-14zM266 406h14v14h-14zM280 406h14v14h-14zM294 406h14v14h-14zM308 406h14v14h-14zM406 406h14v14h-14zM140 420h14v14h-14zM154 420h14v14h-14zM182 420h14v14h-14zM196 420h14v14h-14zM238 420h14v14h-14zM252 420h14v14h-14zM280 420h14v14h-14zM308 420h14v14h-14zM322 420h14v14h-14zM336 420h14v14h-14zM350 420h14v14h-14zM378 420h14v14h-14zM406 420h14v14h-14z" />
<path fill="none" d="M42.7 42.7h68.6v68.6H42.7z" />
<path d="M111.3 28H28v98h98V28h-14.7zm0 83.3H42.7V42.7h68.6v68.6z" />
<path fill="none" d="M350.7 42.7h68.6v68.6h-68.6z" />
<path d="M419.3 28H336v98h98V28h-14.7zm0 83.3h-68.6V42.7h68.6v68.6z" />
<path fill="none" d="M42.7 350.7h68.6v68.6H42.7z" />
<path d="M111.3 336H28v98h98v-98h-14.7zm0 83.3H42.7v-68.6h68.6v68.6zM56 56h42v42H56zM364 56h42v42h-42z" />
<path d="M56 364h42v42H56z" />
</g>
</svg>
