<?xml version="1.0" encoding="utf-8"?>
<svg xmlns="http://www.w3.org/2000/svg" viewBox="0 0 462 462">
<title>https://mtriad.github.io/1/</title>
<rect width="100%" height="100%" fill="#fff" />
<g fill="#000">
<path d="M140 28h14v14h-14zM154 28h14v14h-14zM168 28h14v14h-14zM182 28h14v14h-14zM238 28h14v14h-14zM252 28h14v14h-14zM266 28h14v14h-14zM280 28h14v14h-14zM294 28h14v14h-14zM308 28h14v14h-14zM140 42h14v14h-14zM154 42h14v14h-14zM168 42h14v14h-14zM182 42h14v14h-14zM196 42h14v14h-14zM224 42h14v14h-14zM238 42h14v14h-14zM266 42h14v14h-14zM308 42h14v14h-14zM182 56h14v14h-14zM210 56h14v14h-14zM224 56h14v14h-14zM238 56h14v14h-14zM280 56h14v14h-14zM308 56h14v14h-14zM140 70h14v14h-14zM182 70h14v14h-14zM252 70h14v14h-14zM266 70h14v14h-14zM294 70h14v14h-14zM154 84h14v14h-14zM196 84h14v14h-14zM210 84h14v14h-14zM294 84h14v14h-14zM308 84h14v14h-14zM154 98h14v14h-14zM168 98h14v14h-14zM182 98h14v14h-14zM224 98h14v14h-14zM266 98h14v14h-14zM280 98h14v14h-14zM294 98h14v14h-14zM140 112h14v14h-14zM168 112h14v14h-14zM196 112h14v14h-14zM224 112h14v14h-14zM252 112h14v14h-14zM280 112h14v14h-14zM308 112h14v14h-14zM140 126h14v14h-14zM154 126h14v14h-14zM196 126h14v14h-14zM210 126h14v14h-14zM224 126h14v14h-14zM266 126h14v14h-14zM280 126h14v14h-14zM294 126h14v14h-14zM308 126h14v14h-14zM28 140h14v14H28zM56 140h14v14H56zM70 140h14v14H70zM98 140h14v14H98zM112 140h14v14h-14zM126 140h14v14h-14zM168 140h14v14h-14zM210 140h14v14h-14zM224 140h14v14h-14zM252 140h14v14h-14zM266 140h14v14h-14zM294 140h14v14h-14zM336 140h14v14h-14zM378 140h14v14h-14zM406 140h14v14h-14zM420 140h14v14h-14zM42 154h14v14H42zM56 154h14v14H56zM70 154h14v14H70zM98 154h14v14H98zM140 154h14v14h-14zM168 154h14v14h-14zM238 154h14v14h-14zM252 154h14v14h-14zM266 154h14v14h-14zM280 154h14v14h-14zM294 154h14v14h-14zM308 154h14v14h-14zM322 154h14v14h-14zM336 154h14v14h-14zM350 154h14v14h-14zM364 154h14v14h-14zM420 154h14v14h-14zM56 168h14v14H56zM70 168h14v14H70zM98 168h14v14H98zM112 168h14v14h-14zM126 168h14v14h-14zM140 168h14v14h-14zM196 168h14v14h-14zM224 168h14v14h-14zM238 168h14v14h-14zM280 168h14v14h-14zM392 168h14v14h-14zM406 168h14v14h-14zM98 182h14v14H98zM154 182h14v14h-14zM168 182h14v14h-14zM196 182h14v14h-14zM210 182h14v14h-14zM224 182h14v14h-14zM238 182h14v14h-14zM280 182h14v14h-14zM294 182h14v14h-14zM308 182h14v14h-14zM322 182h14v14h-14zM336 182h14v14h-14zM364 182h14v14h-14zM420 182h14v14h-14zM42 196h14v14H42zM70 196h14v14H70zM84 196h14v14H84zM112 196h14v14h-14zM154 196h14v14h-14zM168 196h14v14h-14zM182 196h14v14h-14zM196 196h14v14h-14zM252 196h14v14h-14zM266 196h14v14h-14zM280 196h14v14h-14zM308 196h14v14h-14zM378 196h14v14h-14zM392 196h14v14h-14zM42 210h14v14H42zM56 210h14v14H56zM70 210h14v14H70zM84 210h14v14H84zM98 210h14v14H98zM126 210h14v14h-14zM182 210h14v14h-14zM196 210h14v14h-14zM210 210h14v14h-14zM266 210h14v14h-14zM280 210h14v14h-14zM294 210h14v14h-14zM336 210h14v14h-14zM392 210h14v14h-14zM406 210h14v14h-14zM420 210h14v14h-14zM28 224h14v14H28zM42 224h14v14H42zM56 224h14v14H56zM112 224h14v14h-14zM140 224h14v14h-14zM154 224h14v14h-14zM168 224h14v14h-14zM182 224h14v14h-14zM224 224h14v14h-14zM294 224h14v14h-14zM322 224h14v14h-14zM336 224h14v14h-14zM364 224h14v14h-14zM392 224h14v14h-14zM406 224h14v14h-14zM420 224h14v14h-14zM56 238h14v14H56zM168 238h14v14h-14zM182 238h14v14h-14zM210 238h14v14h-14zM238 238h14v14h-14zM322 238h14v14h-14zM364 238h14v14h-14zM406 238h14v14h-14zM42 252h14v14H42zM56 252h14v14H56zM70 252h14v14H70zM84 252h14v14H84zM112 252h14v14h-14zM140 252h14v14h-14zM182 252h14v14h-14zM196 252h14v14h-14zM294 252h14v14h-14zM308 252h14v14h-14zM364 252h14v14h-14zM378 252h14v14h-14zM406 252h14v14h-14zM42 266h14v14H42zM56 266h14v14H56zM70 266h14v14H70zM84 266h14v14H84zM98 266h14v14H98zM126 266h14v14h-14zM140 266h14v14h-14zM182 266h14v14h-14zM196 266h14v14h-14zM210 266h14v14h-14zM266 266h14v14h-14zM308 266h14v14h-14zM350 266h14v14h-14zM378 266h14v14h-14zM392 266h14v14h-14zM406 266h14v14h-14zM28 280h14v14H28zM56 280h14v14H56zM70 280h14v14H70zM112 280h14v14h-14zM154 280h14v14h-14zM196 280h14v14h-14zM266 280h14v14h-14zM336 280h14v14h-14zM364 280h14v14h-14zM392 280h14v14h-14zM98 294h14v14H98zM154 294h14v14h-14zM182 294h14v14h-14zM238 294h14v14h-14zM252 294h14v14h-14zM266 294h14v14h-14zM280 294h14v14h-14zM336 294h14v14h-14zM392 294h14v14h-14zM42 308h14v14H42zM84 308h14v14H84zM112 308h14v14h-14zM140 308h14v14h-14zM210 308h14v14h-14zM238 308h14v14h-14zM294 308h14v14h-14zM308 308h14v14h-14zM322 308h14v14h-14zM336 308h14v14h-14zM350 308h14v14h-14zM364 308h14v14h-14zM378 308h14v14h-14zM392 308h14v14h-14zM140 322h14v14h-14zM154 322h14v14h-14zM182 322h14v14h-14zM210 322h14v14h-14zM224 322h14v14h-14zM238 322h14v14h-14zM266 322h14v14h-14zM280 322h14v14h-14zM294 322h14v14h-14zM308 322h14v14h-14zM364 322h14v14h-14zM378 322h14v14h-14zM392 322h14v14h-14zM406 322h14v14h-14zM420 322h14v14h-14zM140 336h14v14h-14zM154 336h14v14h-14zM182 336h14v14h-14zM210 336h14v14h-14zM252 336h14v14h-14zM280 336h14v14h-14zM294 336h14v14h-14zM308 336h14v14h-14zM336 336h14v14h-14zM364 336h14v14h-14zM378 336h14v14h-14zM406 336h14v14h-14zM140 350h14v14h-14zM182 350h14v14h-14zM252 350h14v14h-14zM266 350h14v14h-14zM308 350h14v14h-14zM364 350h14v14h-14zM378 350h14v14h-14zM406 350h14v14h-14zM182 364h14v14h-14zM196 364h14v14h-14zM224 364h14v14h-14zM238 364h14v14h-14zM308 364h14v14h-14zM322 364h14v14h-14zM336 364h14v14h-14zM350 364h14v14h-14zM364 364h14v14h-14zM392 364h14v14h-14zM406 364h14v14h-14zM420 364h14v14h-14zM140 378h14v14h-14zM168 378h14v14h-14zM224 378h14v14h-14zM252 378h14v14h-14zM266 378h14v14h-14zM294 378h14v14h-14zM308 378h14v14h-14zM322 378h14v14h-14zM364 378h14v14h-14zM378 378h14v14h-14zM406 378h14v14h-14zM140 392h14v14h-14zM168 392h14v14h-14zM196 392h14v14h-14zM224 392h14v14h-14zM238 392h14v14h-14zM252 392h14v14h-14zM294 392h14v14h-14zM308 392h14v14h-14zM350 392h14v14h-14zM392 392h14v14h-14zM420 392h14v14h-14zM182 406h14v14h-14zM252 406h14v14h-14zM308 406h14v14h-14zM350 406h14v14h-14zM364 406h14v14h-14zM378 406h14v14h-14zM406 406h14v14h-14zM140 420h14v14h-14zM168 420h14v14h-14zM224 420h14v14h-14zM238 420h14v14h-14zM252 420h14v14h-14zM266 420h14v14h-14zM294 420h14v14h-14zM308 420h14v14h-14zM322 420h14v14h-14zM336 420h14v14h-14zM364 420h14v14h-14zM406 420h14v14h-14z" />
<path fill="none" d="M42.7 42.7h68.6v68.6H42.7z" />
<path d="M111.3 28H28v98h98V28h-14.7zm0 83.3H42.7V42.7h68.6v68.6z" />
<path fill="none" d="M350.7 42.7h68.6v68.6h-68.6z" />
<path d="M419.3 28H336v98h98V28h-14.7zm0 83.3h-68.6V42.7h68.6v68.6z" />
<path fill="none" d="M42.7 350.7h68.6v68.6H42.7z" />
<path d="M111.3 336H28v98h98v-98h-14.7zm0 83.3H42.7v-68.6h68.6v68.6zM56 56h42v42H56zM364 56h42v42h-42z" />
<path d="M56 364h42v42H56z" />
</g>
</svg>
